<?xml version="1.0" standalone="no"?>
<!DOCTYPE svg PUBLIC "-//W3C//DTD SVG 20010904//EN"
 "http://www.w3.org/TR/2001/REC-SVG-20010904/DTD/svg10.dtd">
<svg version="1.0" xmlns="http://www.w3.org/2000/svg"
 width="504.000000pt" height="495.000000pt" viewBox="0 0 504.000000 495.000000"
 preserveAspectRatio="xMidYMid meet">

<g transform="translate(0.000000,495.000000) scale(0.100000,-0.100000)"
fill="#000000" stroke="none">
<path d="M3610 4715 c-61 -15 -646 -75 -726 -75 -28 0 -75 -4 -105 -9 -30 -6
-97 -12 -149 -15 -189 -11 -416 -26 -465 -31 -52 -5 -532 -40 -712 -52 l-102
-6 -6 25 c-4 14 -6 32 -5 39 6 38 1 41 -57 34 -32 -3 -78 -11 -103 -16 -25 -6
-85 -13 -135 -17 -83 -7 -90 -9 -87 -27 11 -64 9 -69 -31 -76 -46 -7 -48 -10
-75 -78 l-22 -53 65 7 c98 10 101 8 108 -83 23 -268 27 -336 37 -502 24 -444
40 -987 50 -1690 10 -820 1 -1733 -18 -1752 -11 -11 -159 -3 -482 27 -74 6
-137 10 -139 8 -3 -2 12 -20 32 -41 46 -48 60 -86 52 -141 l-7 -44 742 6 c409
3 745 9 748 12 4 3 5 23 3 43 -2 30 5 47 34 85 20 27 35 50 33 52 -1 2 -37 0
-78 -5 -273 -30 -729 -35 -746 -8 -7 11 -6 966 0 977 3 4 7 108 11 231 8 315
24 799 30 900 2 47 7 216 11 375 3 160 9 370 13 467 l8 176 34 44 c303 393
533 650 699 779 41 32 81 64 88 69 17 15 134 70 148 70 7 0 14 6 17 14 5 13
79 21 292 31 55 2 165 7 245 11 80 3 161 7 180 9 19 1 140 4 269 6 l235 3 8
-30 c10 -37 13 -450 3 -525 -6 -47 -11 -59 -31 -68 -14 -6 -30 -11 -36 -11
-34 0 -142 -66 -185 -114 -152 -167 -177 -402 -62 -592 58 -95 129 -139 272
-169 19 -4 27 -11 25 -22 -3 -16 -158 -102 -248 -137 -25 -10 -58 -24 -75 -31
-41 -19 -207 -82 -280 -106 -33 -11 -69 -24 -80 -29 -11 -5 -53 -19 -93 -31
-76 -22 -95 -35 -65 -46 10 -3 32 -19 49 -35 28 -26 34 -28 60 -17 16 6 38 15
49 19 289 114 552 239 635 302 27 20 51 34 53 30 3 -4 10 -59 17 -122 12 -111
10 -302 -6 -646 l-6 -132 38 -5 c22 -3 62 -9 90 -13 53 -7 57 -10 83 -76 5
-13 14 -36 21 -53 6 -16 19 -50 27 -74 8 -25 34 -85 58 -135 117 -251 138
-294 156 -326 10 -19 34 -65 51 -102 18 -37 38 -68 45 -68 7 0 20 16 29 35 9
20 28 44 41 55 28 22 25 46 -7 75 -11 10 -20 21 -20 25 0 4 -24 47 -53 96 -88
145 -215 387 -263 499 -7 17 -20 46 -28 67 -9 20 -16 41 -16 47 0 6 -4 11 -10
11 -5 0 -10 13 -10 28 0 16 -3 32 -7 36 -21 21 -33 92 -33 206 0 69 -5 144
-10 168 -6 23 -15 86 -20 140 -6 53 -13 114 -16 135 -5 29 -3 37 9 37 8 0 21
-7 28 -17 24 -29 310 -255 441 -349 l127 -91 55 26 c31 14 56 29 56 32 0 4
-15 14 -32 24 -50 25 -72 38 -114 67 -22 14 -79 52 -129 84 -221 143 -461 328
-471 362 -3 12 -10 22 -15 22 -5 0 -9 8 -9 18 0 14 14 21 63 31 213 46 337
198 337 413 0 201 -109 381 -260 427 -19 6 -55 16 -79 24 -35 10 -47 19 -52
40 -4 15 -9 152 -11 304 l-3 277 25 6 c25 6 25 6 24 120 -1 63 -5 115 -10 116
-5 1 -34 -4 -64 -11z m-1740 -310 c0 -8 -37 -71 -82 -139 -46 -69 -114 -173
-152 -233 -38 -59 -92 -144 -121 -188 -28 -44 -74 -117 -101 -162 -27 -45 -55
-82 -62 -83 -11 0 -13 69 -11 385 2 212 6 391 10 397 5 7 60 15 146 20 76 4
147 9 158 11 11 1 64 4 118 5 82 3 97 1 97 -13z m1899 -673 c107 -53 166 -166
166 -317 0 -116 -23 -174 -99 -246 -79 -76 -309 -104 -412 -51 -112 57 -174
214 -144 364 27 139 126 254 240 279 67 15 190 1 249 -29z"/>
<path d="M3467 3582 c-34 -38 -5 -97 45 -90 30 4 36 48 11 82 -22 30 -34 32
-56 8z"/>
<path d="M3656 3578 c-21 -29 -20 -51 2 -71 50 -45 88 -1 52 58 -25 41 -33 43
-54 13z"/>
<path d="M3555 3290 c-4 -6 14 -10 47 -10 38 0 49 3 38 10 -20 13 -77 13 -85
0z"/>
</g>
</svg>
