<?xml version="1.0" standalone="no"?>
<!DOCTYPE svg PUBLIC "-//W3C//DTD SVG 20010904//EN"
 "http://www.w3.org/TR/2001/REC-SVG-20010904/DTD/svg10.dtd">
<svg version="1.0" xmlns="http://www.w3.org/2000/svg"
 width="504.000000pt" height="495.000000pt" viewBox="0 0 504.000000 495.000000"
 preserveAspectRatio="xMidYMid meet">

<g transform="translate(0.000000,495.000000) scale(0.100000,-0.100000)"
fill="#000000" stroke="none">
<path d="M3610 4715 c-103 -25 -723 -81 -1245 -114 -93 -6 -213 -15 -265 -21
-52 -5 -131 -12 -175 -14 -44 -2 -189 -12 -323 -22 -265 -20 -264 -20 -261 36
2 52 3 52 -58 45 -32 -3 -78 -11 -103 -16 -25 -6 -85 -13 -135 -17 -83 -7 -90
-9 -87 -27 11 -65 9 -70 -32 -75 -21 -3 -43 -12 -47 -20 -12 -23 -49 -103 -49
-108 0 -2 33 -1 72 3 40 3 78 2 84 -2 12 -8 13 -23 38 -348 13 -175 33 -594
51 -1065 26 -676 24 -2585 -3 -2612 -11 -11 -159 -3 -482 27 -74 6 -137 10
-139 8 -3 -2 12 -20 32 -41 46 -47 60 -86 52 -140 l-6 -43 588 2 c323 1 660 5
748 8 l160 6 -3 40 c-3 34 3 49 33 88 20 27 35 50 33 52 -1 2 -37 0 -78 -5
-271 -30 -729 -35 -746 -8 -10 16 -6 812 5 1083 11 262 25 664 41 1250 6 193
14 450 19 571 l8 222 33 43 c304 394 534 651 700 780 41 32 81 64 88 69 17 15
134 70 148 70 7 0 14 6 17 14 5 14 80 21 302 31 61 2 166 7 235 11 188 9 663
21 677 16 6 -2 14 -18 17 -36 9 -46 9 -459 0 -523 -6 -49 -9 -53 -43 -64 -129
-40 -224 -116 -283 -225 -118 -218 -48 -514 147 -616 29 -15 77 -30 138 -43
27 -5 28 -8 22 -46 -4 -22 -3 -45 3 -52 5 -7 15 -66 22 -133 12 -116 11 -257
-6 -646 l-6 -138 126 0 126 0 0 34 c0 19 -4 38 -10 41 -5 3 -10 16 -10 29 0
12 -3 26 -7 30 -21 21 -33 92 -33 202 0 66 -5 145 -10 175 -17 93 -33 240 -34
325 -1 63 -5 86 -18 101 -10 11 -18 25 -18 31 0 7 -4 12 -10 12 -5 0 -10 8
-10 18 0 14 14 21 63 31 214 46 337 197 337 416 0 203 -109 378 -265 425 -123
38 -124 38 -130 83 -3 23 -6 159 -8 301 l-2 260 25 6 c25 6 25 6 24 120 -1 63
-5 115 -10 116 -5 1 -34 -4 -64 -11z m-1740 -310 c0 -8 -37 -71 -82 -139 -46
-69 -114 -173 -152 -233 -38 -59 -92 -144 -121 -188 -28 -44 -74 -117 -101
-162 -27 -45 -55 -82 -62 -83 -12 0 -13 67 -10 386 1 212 6 391 10 397 3 6 40
12 80 14 41 2 112 7 159 11 46 4 128 9 182 10 82 3 97 1 97 -13z m1899 -673
c64 -32 117 -95 147 -175 38 -103 21 -279 -33 -335 -7 -7 -18 -21 -25 -30 -46
-63 -142 -96 -283 -96 -95 -1 -116 2 -151 21 -113 60 -174 215 -144 365 26
138 127 254 240 279 67 15 190 1 249 -29z"/>
<path d="M3467 3582 c-34 -38 -5 -97 45 -90 30 4 36 48 11 82 -22 30 -34 32
-56 8z"/>
<path d="M3656 3578 c-21 -29 -20 -51 2 -71 24 -22 51 -22 67 0 11 14 8 23
-13 55 -29 44 -35 46 -56 16z"/>
<path d="M3555 3290 c-4 -6 14 -10 47 -10 38 0 49 3 38 10 -20 13 -77 13 -85
0z"/>
</g>
</svg>
