<?xml version="1.0" standalone="no"?>
<!DOCTYPE svg PUBLIC "-//W3C//DTD SVG 20010904//EN"
 "http://www.w3.org/TR/2001/REC-SVG-20010904/DTD/svg10.dtd">
<svg version="1.0" xmlns="http://www.w3.org/2000/svg"
 width="504.000000pt" height="495.000000pt" viewBox="0 0 504.000000 495.000000"
 preserveAspectRatio="xMidYMid meet">

<g transform="translate(0.000000,495.000000) scale(0.100000,-0.100000)"
fill="#000000" stroke="none">
<path d="M3635 4719 c-32 -10 -195 -29 -450 -55 -195 -19 -445 -38 -815 -64
-91 -6 -178 -12 -195 -14 -31 -3 -178 -14 -272 -21 -29 -2 -163 -11 -298 -21
-269 -19 -267 -20 -264 36 2 52 3 52 -58 45 -32 -3 -76 -10 -98 -16 -22 -5
-83 -13 -135 -17 -88 -6 -95 -9 -92 -27 11 -65 9 -70 -32 -75 -21 -3 -43 -12
-47 -20 -12 -23 -49 -103 -49 -108 0 -2 33 -1 72 3 40 3 78 2 84 -2 6 -4 14
-39 17 -78 31 -375 44 -624 72 -1330 26 -653 24 -2590 -3 -2617 -11 -11 -159
-3 -482 27 -74 6 -137 10 -139 8 -3 -2 12 -20 32 -41 46 -47 60 -86 52 -140
l-6 -44 586 3 c323 2 660 5 749 8 l161 6 -3 40 c-3 34 3 49 33 88 20 27 35 50
33 52 -1 2 -37 0 -78 -5 -271 -30 -729 -35 -746 -8 -9 15 -5 905 5 1053 5 72
10 202 10 290 1 88 6 259 11 380 5 121 14 393 20 605 6 212 14 478 19 592 l8
206 33 44 c304 393 534 650 700 779 41 32 81 64 88 69 17 15 134 70 148 70 7
0 14 6 17 14 7 17 96 24 537 41 85 4 171 8 190 9 19 2 138 5 264 7 l230 3 8
-29 c10 -37 12 -461 2 -532 -6 -49 -9 -53 -43 -64 -129 -40 -224 -116 -283
-225 -118 -218 -48 -514 147 -616 28 -15 78 -31 135 -42 25 -5 26 -9 40 -133
17 -144 19 -461 6 -710 l-9 -163 126 0 127 0 0 30 c0 17 -4 30 -10 30 -5 0
-10 13 -10 28 0 16 -3 32 -7 36 -21 21 -33 92 -33 202 0 66 -5 145 -10 175 -6
30 -15 95 -20 145 -6 49 -13 106 -16 127 -7 43 11 50 42 16 33 -36 297 -245
433 -343 l130 -93 55 26 c31 14 56 29 56 32 0 4 -15 14 -32 24 -50 25 -72 38
-114 67 -22 14 -79 52 -129 84 -225 146 -475 341 -475 369 0 8 -4 15 -10 15
-5 0 -10 8 -10 18 0 14 14 21 63 31 213 46 337 198 337 413 0 201 -109 381
-260 427 -19 6 -55 16 -79 24 -35 10 -47 19 -52 40 -4 15 -9 152 -11 304 l-3
277 25 6 c25 6 25 6 24 120 -1 63 -5 115 -10 116 -5 1 -22 -2 -39 -7z m-1765
-314 c0 -8 -37 -71 -82 -139 -46 -69 -114 -173 -152 -233 -38 -59 -92 -144
-121 -188 -28 -44 -74 -117 -101 -162 -27 -45 -55 -82 -62 -83 -11 0 -13 69
-11 385 2 212 6 391 10 397 4 7 40 13 81 15 41 2 112 7 159 11 46 4 128 9 182
10 82 3 97 1 97 -13z m1899 -673 c107 -53 166 -166 166 -317 0 -116 -23 -174
-99 -246 -79 -76 -310 -103 -414 -50 -110 56 -172 214 -142 363 27 139 126
254 240 279 67 15 190 1 249 -29z"/>
<path d="M3467 3582 c-34 -38 -5 -97 45 -90 30 4 36 48 11 82 -22 30 -34 32
-56 8z"/>
<path d="M3656 3578 c-21 -29 -20 -51 2 -71 50 -45 88 -1 52 58 -25 41 -33 43
-54 13z"/>
<path d="M3555 3290 c-4 -6 14 -10 47 -10 38 0 49 3 38 10 -20 13 -77 13 -85
0z"/>
</g>
</svg>
