<?xml version="1.0" standalone="no"?>
<!DOCTYPE svg PUBLIC "-//W3C//DTD SVG 20010904//EN"
 "http://www.w3.org/TR/2001/REC-SVG-20010904/DTD/svg10.dtd">
<svg version="1.0" xmlns="http://www.w3.org/2000/svg"
 width="732.000000pt" height="720.000000pt" viewBox="0 0 732.000000 720.000000"
 preserveAspectRatio="xMidYMid meet">

<g transform="translate(0.000000,720.000000) scale(0.100000,-0.100000)"
fill="#000000" stroke="none">
<path d="M5285 6870 c-161 -31 -237 -41 -526 -64 -97 -8 -212 -19 -255 -25
-43 -6 -153 -15 -244 -21 -91 -6 -171 -13 -179 -16 -7 -2 -93 -9 -190 -15
-212 -13 -254 -16 -351 -28 -41 -6 -125 -10 -185 -10 -61 -1 -167 -8 -237 -16
-69 -8 -202 -19 -295 -25 -235 -13 -719 -48 -775 -56 -76 -10 -88 -2 -88 60 0
85 -8 90 -124 77 -54 -6 -106 -16 -116 -21 -23 -12 -266 -33 -297 -25 -13 3
-28 -1 -37 -11 -14 -14 -14 -19 -1 -51 29 -69 13 -93 -65 -93 -30 0 -42 -5
-47 -17 -12 -35 -44 -108 -59 -135 -9 -17 -11 -29 -4 -33 5 -3 52 -3 103 1
135 10 132 12 140 -138 4 -68 11 -150 16 -183 6 -33 15 -159 21 -280 5 -121
15 -283 20 -360 5 -77 14 -293 20 -480 6 -187 15 -425 20 -530 9 -197 15 -475
27 -1445 10 -738 8 -1453 -6 -2112 -5 -262 -8 -299 -23 -314 -16 -17 -31 -17
-270 0 -410 29 -479 35 -553 45 -38 5 -74 6 -79 1 -4 -4 19 -34 52 -67 54 -52
60 -63 67 -110 4 -29 4 -75 0 -101 l-6 -49 264 -7 c345 -9 1898 4 1914 16 7 6
10 28 6 64 -5 48 -3 59 23 96 16 24 39 54 52 68 22 25 31 67 11 55 -6 -4 -61
-11 -122 -16 -62 -6 -137 -12 -167 -15 -146 -15 -569 -25 -725 -18 l-170 9 -7
40 c-15 89 -4 1086 21 1755 6 162 15 439 21 615 5 176 14 444 20 595 5 151 14
457 20 680 6 223 15 509 19 636 l8 232 128 168 c71 93 131 171 134 174 4 3 31
37 61 75 44 57 158 194 180 215 3 3 30 34 60 70 177 210 461 480 618 588 63
43 157 89 196 96 23 5 47 17 58 32 16 20 28 24 71 24 29 0 102 4 162 10 61 5
214 12 340 16 286 8 303 9 500 23 88 6 279 10 425 9 l265 -3 7 -40 c15 -86 19
-597 6 -718 l-13 -119 -60 -19 c-115 -38 -161 -62 -235 -125 -60 -51 -164
-184 -191 -244 -44 -97 -54 -152 -54 -300 0 -113 4 -158 19 -205 23 -76 53
-140 85 -185 37 -53 131 -139 176 -163 49 -26 157 -63 208 -72 32 -5 38 -10
35 -27 -2 -16 -37 -39 -143 -92 -77 -40 -165 -82 -195 -94 -59 -25 -113 -49
-144 -65 -17 -8 -98 -38 -251 -93 -22 -8 -48 -19 -57 -24 -10 -6 -23 -10 -30
-10 -7 -1 -31 -9 -53 -20 -22 -11 -51 -19 -65 -20 -14 0 -35 -7 -46 -15 -12
-8 -39 -19 -60 -24 -78 -20 -170 -48 -182 -55 -22 -14 -12 -32 28 -50 21 -9
49 -29 62 -44 34 -41 44 -44 77 -27 17 8 38 15 49 15 10 0 23 5 29 11 6 6 46
23 90 38 43 16 87 33 98 39 11 6 54 25 95 43 84 35 176 77 265 119 33 16 76
36 95 44 19 9 43 20 53 26 26 15 48 27 94 50 60 30 166 100 179 118 19 26 31
5 37 -70 4 -40 11 -118 17 -173 12 -125 12 -462 0 -575 -6 -47 -12 -146 -16
-220 -5 -122 -21 -204 -42 -220 -4 -3 -21 -25 -37 -50 -17 -25 -54 -76 -82
-113 -29 -38 -53 -72 -53 -76 0 -3 -12 -19 -26 -35 -15 -15 -48 -54 -73 -86
-26 -32 -84 -97 -130 -145 -45 -48 -93 -104 -105 -124 -23 -36 -114 -135 -259
-284 -43 -43 -77 -84 -77 -91 0 -7 11 -27 25 -46 14 -19 25 -42 25 -51 0 -25
38 -109 48 -109 6 0 17 11 25 24 9 13 28 37 43 53 15 15 52 60 82 98 31 39 65
80 77 92 12 12 48 59 80 103 33 44 63 80 67 80 4 0 8 7 8 15 0 7 6 18 13 22 7
4 20 19 28 33 9 14 52 70 96 126 45 55 91 120 103 143 12 24 36 65 54 90 18
25 35 53 39 61 4 8 18 33 31 55 13 22 37 64 53 94 15 29 34 56 42 59 24 9 195
-19 214 -36 9 -8 17 -25 17 -37 0 -11 7 -30 15 -41 8 -10 15 -28 15 -39 0 -11
9 -37 20 -58 11 -20 20 -44 20 -52 0 -25 84 -210 100 -220 6 -3 10 -15 10 -26
0 -11 9 -37 20 -57 10 -20 21 -44 24 -52 3 -8 10 -22 15 -30 5 -8 37 -73 71
-145 34 -71 66 -138 71 -147 18 -36 115 -220 132 -254 9 -18 21 -34 25 -34 14
0 32 23 32 42 0 10 27 45 60 79 33 34 60 64 60 67 0 3 -7 12 -15 21 -29 30
-65 79 -65 87 0 4 -7 16 -17 26 -17 19 -30 40 -57 93 -9 17 -25 44 -35 60 -11
17 -34 57 -51 90 -18 33 -39 67 -46 76 -8 8 -14 23 -14 32 0 9 -4 19 -10 22
-8 5 -37 61 -64 125 -3 8 -20 38 -36 65 -16 28 -33 57 -36 65 -3 8 -10 22 -15
30 -9 15 -17 31 -46 100 -8 19 -23 52 -34 72 -10 20 -19 46 -19 56 0 11 -7 25
-15 32 -8 7 -15 20 -15 29 0 9 -9 34 -20 56 -11 22 -20 46 -20 54 0 7 -9 32
-19 55 -34 74 -40 119 -44 331 -3 124 -9 222 -16 239 -6 15 -14 83 -18 150 -3
66 -12 138 -20 160 -16 46 -17 106 -2 106 5 0 45 -30 88 -67 71 -61 132 -111
309 -254 31 -25 111 -84 177 -133 66 -48 127 -93 135 -99 9 -7 42 -30 74 -52
33 -22 65 -44 72 -50 10 -7 20 -6 32 3 9 7 37 22 62 33 94 42 97 49 33 81 -26
12 -50 25 -53 28 -3 3 -27 19 -55 35 -27 15 -63 39 -78 52 -16 12 -32 23 -37
23 -5 0 -44 25 -87 55 -43 30 -89 61 -103 67 -14 7 -42 25 -63 42 -22 16 -53
39 -70 51 -65 44 -171 119 -186 131 -9 7 -41 32 -72 56 -147 112 -229 184
-229 201 0 9 -9 25 -20 34 -40 35 -26 48 78 73 53 13 106 29 117 37 11 7 27
13 37 13 9 0 23 6 30 14 8 7 25 17 37 21 33 10 152 133 176 180 10 22 24 47
31 55 6 8 22 49 35 90 20 62 24 96 24 200 0 145 -24 240 -87 350 -4 8 -11 22
-15 30 -3 8 -20 33 -37 55 -87 115 -184 178 -313 205 -23 5 -57 16 -77 24 -41
17 -42 21 -51 256 -17 431 -21 597 -14 618 7 17 16 22 44 22 21 0 35 5 36 13
0 6 1 83 2 169 2 155 -1 172 -31 167 -4 -1 -25 -5 -47 -9z m-2591 -446 c23 -9
20 -38 -9 -72 -14 -17 -25 -32 -25 -35 0 -2 -37 -60 -82 -128 -46 -69 -103
-157 -128 -198 -25 -40 -54 -85 -66 -100 -11 -14 -24 -33 -27 -41 -4 -8 -15
-27 -25 -41 -9 -15 -32 -51 -50 -80 -18 -30 -55 -88 -82 -129 -28 -41 -55 -84
-60 -95 -6 -11 -28 -47 -50 -80 -21 -33 -54 -86 -72 -117 -22 -39 -39 -58 -51
-58 -19 0 -19 16 -12 558 4 325 11 561 17 567 5 5 35 11 66 13 165 7 230 11
257 16 17 3 98 8 180 12 83 3 152 8 154 10 7 6 48 5 65 -2z m2719 -975 c87
-35 114 -50 149 -84 53 -53 76 -85 94 -125 38 -91 45 -119 50 -212 7 -115 -6
-224 -33 -279 -69 -140 -185 -214 -373 -240 -175 -24 -306 2 -391 77 -45 39
-99 108 -99 126 0 7 -7 23 -15 34 -26 38 -40 194 -27 299 14 111 37 166 109
257 57 71 93 103 164 142 40 22 56 25 182 25 118 1 146 -2 190 -20z"/>
<path d="M5031 5213 c-40 -48 -39 -77 1 -114 39 -35 80 -38 102 -7 23 32 20
56 -11 102 -46 68 -51 69 -92 19z"/>
<path d="M5300 5193 c-32 -49 -32 -49 14 -100 25 -29 69 -30 96 -1 11 12 20
25 20 28 0 28 -69 120 -90 120 -6 0 -24 -21 -40 -47z"/>
<path d="M5144 4785 c-17 -13 -11 -14 64 -15 57 0 90 -5 106 -16 16 -10 26
-12 31 -5 3 6 1 11 -5 11 -7 0 -23 9 -37 20 -32 25 -129 28 -159 5z"/>
<path d="M5070 4760 c-12 -8 -12 -10 3 -16 20 -7 47 1 47 16 0 12 -30 13 -50
0z"/>
</g>
</svg>
