<?xml version="1.0" standalone="no"?>
<!DOCTYPE svg PUBLIC "-//W3C//DTD SVG 20010904//EN"
 "http://www.w3.org/TR/2001/REC-SVG-20010904/DTD/svg10.dtd">
<svg version="1.0" xmlns="http://www.w3.org/2000/svg"
 width="732.000000pt" height="720.000000pt" viewBox="0 0 732.000000 720.000000"
 preserveAspectRatio="xMidYMid meet">

<g transform="translate(0.000000,720.000000) scale(0.100000,-0.100000)"
fill="#000000" stroke="none">
<path d="M5300 6874 c-14 -3 -43 -9 -65 -15 -22 -7 -76 -15 -120 -19 -44 -4
-125 -13 -180 -19 -55 -7 -143 -16 -195 -21 -52 -5 -144 -14 -205 -21 -127
-13 -398 -34 -630 -48 -88 -6 -203 -15 -255 -21 -167 -19 -183 -20 -312 -21
-70 0 -130 -4 -133 -8 -2 -5 -66 -11 -142 -15 -76 -4 -156 -11 -178 -16 -22
-5 -121 -11 -220 -15 -99 -3 -202 -10 -230 -16 -27 -5 -124 -14 -215 -19 -91
-5 -182 -12 -203 -16 -55 -9 -67 6 -67 81 0 52 -3 64 -17 67 -24 4 -195 -15
-209 -24 -15 -10 -282 -31 -300 -24 -25 10 -44 -5 -44 -34 0 -16 4 -32 10 -35
5 -3 10 -21 10 -40 0 -32 -3 -35 -38 -40 -79 -13 -92 -17 -92 -26 0 -12 -34
-92 -55 -130 -8 -14 -11 -29 -8 -33 4 -4 58 -4 119 0 l113 7 5 -24 c3 -13 12
-107 21 -209 14 -168 20 -257 45 -645 5 -66 13 -304 19 -530 6 -225 15 -441
20 -480 6 -38 12 -268 16 -510 3 -242 8 -631 12 -865 9 -525 8 -1708 -2 -2208
l-7 -373 -23 -15 c-20 -13 -43 -14 -157 -5 -73 6 -221 17 -328 25 -107 8 -226
19 -265 25 -97 15 -145 14 -145 -2 0 -7 21 -30 46 -51 64 -53 78 -92 71 -189
l-6 -78 1084 1 c1190 2 1118 -2 1096 61 -6 18 -11 37 -11 44 0 14 73 127 94
144 18 15 23 56 5 46 -13 -9 -356 -42 -574 -56 -93 -6 -264 -8 -379 -5 -176 5
-212 8 -227 22 -18 16 -19 39 -18 388 0 204 4 535 9 736 25 1147 31 1356 41
1460 5 63 16 372 24 685 19 728 34 1199 41 1251 2 22 11 49 20 60 8 10 31 42
52 70 105 145 409 524 518 644 12 14 100 105 196 204 246 254 393 368 557 435
40 16 80 36 89 44 20 18 76 22 452 36 146 5 330 15 410 21 149 12 875 30 898
22 7 -2 16 -16 20 -31 10 -36 9 -690 -1 -773 l-9 -68 79 0 78 0 -6 147 c-3 82
-11 274 -18 427 -13 306 -15 296 46 296 l32 0 3 168 c2 103 -1 170 -7 174 -10
8 -12 8 -55 2z m-2577 -460 c-2 -17 -64 -117 -174 -281 -86 -128 -118 -176
-190 -290 -46 -73 -128 -201 -181 -285 -53 -84 -120 -192 -149 -240 -88 -151
-84 -173 -81 479 3 478 6 570 18 583 11 11 57 16 197 22 100 4 232 12 292 18
128 12 198 17 240 16 24 -1 30 -5 28 -22z"/>
</g>
</svg>
