<?xml version="1.0" standalone="no"?>
<!DOCTYPE svg PUBLIC "-//W3C//DTD SVG 20010904//EN"
 "http://www.w3.org/TR/2001/REC-SVG-20010904/DTD/svg10.dtd">
<svg version="1.0" xmlns="http://www.w3.org/2000/svg"
 width="504.000000pt" height="495.000000pt" viewBox="0 0 504.000000 495.000000"
 preserveAspectRatio="xMidYMid meet">

<g transform="translate(0.000000,495.000000) scale(0.100000,-0.100000)"
fill="#000000" stroke="none">
<path d="M3610 4715 c-55 -13 -471 -58 -710 -76 -211 -16 -358 -27 -530 -39
-91 -6 -178 -12 -195 -14 -31 -3 -178 -14 -272 -21 -29 -2 -163 -11 -298 -21
-269 -19 -267 -20 -264 36 2 52 3 52 -58 45 -32 -3 -78 -11 -103 -16 -25 -6
-85 -13 -135 -17 -83 -7 -90 -9 -87 -27 11 -65 9 -70 -32 -75 -21 -3 -43 -12
-47 -20 -13 -23 -49 -103 -49 -108 0 -2 29 -1 65 3 98 10 101 8 108 -83 4 -42
11 -131 16 -197 33 -393 59 -1124 71 -2000 10 -823 1 -1728 -18 -1747 -11 -11
-160 -3 -482 27 -74 6 -137 10 -139 8 -3 -2 12 -20 32 -41 46 -48 60 -86 52
-141 l-7 -44 742 6 c408 3 745 9 748 12 3 3 5 23 3 43 -2 30 5 47 34 85 20 27
35 50 33 52 -1 2 -37 0 -78 -5 -271 -30 -729 -35 -746 -8 -10 16 -6 833 6
1088 10 240 22 617 40 1250 6 195 14 452 19 571 l8 217 33 43 c304 394 534
651 700 780 41 32 81 64 88 69 17 15 134 70 148 70 7 0 14 6 17 14 7 17 96 24
537 41 85 4 171 8 190 9 80 8 491 9 498 2 11 -11 18 -313 10 -465 -6 -140 -8
-145 -58 -157 -105 -25 -214 -114 -272 -220 -118 -218 -47 -515 147 -616 39
-20 96 -38 122 -38 12 0 28 -7 37 -15 19 -19 106 -21 106 -2 0 8 25 18 63 26
167 36 275 133 323 290 18 58 18 191 0 256 -38 144 -136 260 -246 294 -19 6
-55 16 -79 24 -35 10 -47 19 -52 40 -4 15 -9 152 -11 304 l-3 277 25 6 c25 6
25 6 24 120 -1 63 -5 115 -10 116 -5 1 -34 -4 -64 -11z m-1740 -310 c0 -8 -37
-71 -82 -139 -46 -69 -114 -173 -152 -233 -38 -59 -92 -144 -121 -188 -28 -44
-74 -117 -101 -162 -27 -45 -55 -82 -62 -83 -11 0 -13 69 -11 385 2 212 6 391
10 397 4 7 40 13 81 15 41 2 112 7 159 11 46 4 128 9 182 10 82 3 97 1 97 -13z
m1899 -673 c107 -53 166 -166 166 -317 0 -116 -23 -174 -99 -246 -79 -76 -309
-104 -413 -50 -111 56 -173 213 -143 363 27 139 126 254 240 279 67 15 190 1
249 -29z"/>
<path d="M3467 3582 c-34 -38 -5 -97 45 -90 30 4 36 48 11 82 -22 30 -34 32
-56 8z"/>
<path d="M3656 3578 c-21 -29 -20 -51 2 -71 24 -22 51 -22 67 0 11 14 8 23
-13 55 -29 44 -35 46 -56 16z"/>
<path d="M3555 3290 c-4 -6 14 -10 47 -10 38 0 49 3 38 10 -20 13 -77 13 -85
0z"/>
</g>
</svg>
